<svg xmlns="http://www.w3.org/2000/svg" version="1.1" xmlns:xlink="http://www.w3.org/1999/xlink" xmlns:svgjs="http://svgjs.com/svgjs" width="1440" height="560" preserveAspectRatio="none" viewBox="0 0 1440 560"><g mask="url(&quot;#SvgjsMask1029&quot;)" fill="none"><rect width="1440" height="560" x="0" y="0" fill="url(#SvgjsLinearGradient1030)"></rect><path d="M1440 0L1106.56 0L1440 179.71z" fill="rgba(255, 255, 255, .1)"></path><path d="M1106.56 0L1440 179.71L1440 295.78L659.4399999999999 0z" fill="rgba(255, 255, 255, .075)"></path><path d="M659.44 0L1440 295.78L1440 369.51L289.2300000000001 0z" fill="rgba(255, 255, 255, .05)"></path><path d="M289.23 0L1440 369.51L1440 377.46999999999997L173.91000000000003 0z" fill="rgba(255, 255, 255, .025)"></path><path d="M0 560L383.66 560L0 289.78z" fill="rgba(0, 0, 0, .1)"></path><path d="M0 289.78L383.66 560L791.79 560L0 184.60999999999996z" fill="rgba(0, 0, 0, .075)"></path><path d="M0 184.60999999999996L791.79 560L1035.1799999999998 560L0 175.33999999999995z" fill="rgba(0, 0, 0, .05)"></path><path d="M0 175.33999999999997L1035.1799999999998 560L1088.0499999999997 560L0 102.99999999999997z" fill="rgba(0, 0, 0, .025)"></path></g><defs><mask id="SvgjsMask1029"><rect width="1440" height="560" fill="#ffffff"></rect></mask><linearGradient x1="15.28%" y1="-39.29%" x2="84.72%" y2="139.29%" gradientUnits="userSpaceOnUse" id="SvgjsLinearGradient1030"><stop stop-color="#0e2a47" offset="0"></stop><stop stop-color="rgba(22, 136, 150, 1)" offset="1"></stop></linearGradient></defs></svg>